<svg xmlns="http://www.w3.org/2000/svg" viewBox="0 0 91 23"><path fill="#fff" d="M5.592 18.64c-.672 0-.952-.504-.84-1.204L6.628 5.62c.14-.812.336-1.204 1.036-1.204.672 0 .924.364.812 1.204l-.56 3.416h3.612l.56-3.556C12.48 3.072 11.836.888 8.224.888h-.756c-3.192 0-4.2 2.128-4.62 4.732L.972 17.436c-.392 2.492.42 4.872 3.92 4.872h.728c3.22 0 4.2-2.352 4.592-4.872l.728-4.592H7.328L6.6 17.38c-.14.784-.336 1.26-1.008 1.26Zm15.187-1.148.168-1.064c.335-2.044-.392-3.612-1.793-5.908l-1.148-1.848c-.811-1.316-1.008-1.68-.84-2.828l.113-.728c.084-.588.195-1.008.84-1.008.672 0 .811.448.7 1.092l-.392 2.492h3.471l.393-2.492c.447-2.912-.729-4.284-3.5-4.284h-.813c-2.52 0-3.948 1.176-4.396 3.92l-.14.868c-.335 2.156.168 3.612 1.512 5.74l1.093 1.736c.924 1.428 1.148 2.072.924 3.416l-.113.672c-.168 1.064-.532 1.512-1.12 1.512-.671 0-.867-.42-.727-1.316l.532-3.388h-3.584l-.588 3.696c-.449 2.884 1.175 4.48 3.807 4.48h.813c2.715 0 4.284-1.596 4.788-4.76Zm5.755-7.756h-3.248l-.644 4.032h3.248l.644-4.032Zm-1.316 8.232H21.97L21.326 22h3.248l.644-4.032Zm4.548 4.312c1.568 0 2.772-1.456 3.136-2.268.168.56.308 1.568.308 1.988h2.156l1.988-12.628h-4.816l-.588 3.5h1.372l-.728 4.508c-.14.868-.532 1.288-1.232 1.288-.644 0-.952-.476-.812-1.428l1.82-11.508c.14-.896.392-1.316 1.064-1.316.756 0 .896.476.784 1.316L33.854 8h3.528l.364-2.24c.42-2.576-.28-4.844-3.864-4.844h-.728c-3.192 0-4.172 2.352-4.564 4.872L26.63 18.22c-.336 2.1.672 4.06 2.884 4.06h.252ZM43.913.916c-3.024 0-4.144 2.072-4.648 5.32l-1.708 10.808c-.504 3.276 1.064 5.264 4.172 5.264h.756c2.632 0 4.088-1.96 4.592-5.124l1.736-10.976c.504-3.164-.812-5.292-4.144-5.292h-.756Zm1.148 5.012-1.82 11.48c-.084.532-.308 1.176-1.092 1.176-.812 0-.952-.616-.868-1.176l1.82-11.48c.14-.896.392-1.372 1.12-1.372.728 0 .98.476.84 1.372ZM59.722 22h4.228l5.684-20.832H66.05l-3.164 13.328.672-13.328h-3.444l-3.248 13.048.756-13.048h-3.696L53.422 22h4.172l2.8-11.704L59.722 22ZM74.22 1.168h-3.612L67.303 22h3.612l3.304-20.832ZM78.559 22h3.808L81.08 10.772l4.284-9.604h-3.668l-3.528 7.924 1.26-7.924h-3.612L72.511 22h3.612l1.428-9.016L78.56 22Zm11.6-20.832h-3.612L83.243 22h3.612l3.304-20.832Z"/></svg>