<svg xmlns="http://www.w3.org/2000/svg" viewBox="0 0 70 38"><g clip-path="url(#a)" fill="#030927"><circle fill="#fff" r="18" cx="19" cy="19"/><path d="M-16.121 42.606H6.333v-52.97l-22.454 52.97Zm33.394 0h9.788V19l-9.788 23.606ZM21.649 0h-9.673v23.03L21.649 0Z"/><path d="M31.321 0h-9.673v23.03L31.321 0ZM7.37 42.606h9.672v-23.03L7.37 42.606Z"/></g><circle fill="#F39" r="19" cx="51" cy="19"/><path fill="#fff" d="m50.621 21.161.47.032c1.4 4.02-.57 8.84-4.591 10.765V32c3.959-.328 9.113-4.023 9.416-9.716l.584-.072v-.887c-1.19-.602-1.968-3.104-.301-4.434-.284-3.33-1.862-6.652-3.868-8.977L48.736 6l-.547 1.055a2.67 2.67 0 0 0-1.115 1.077c-.247.452-.343.96-.276 1.462.172 1.209 1.117 1.949 2.849 2.19.891.12 1.218.47 1.378.938.16.495.113.997-.32 1.288l.07.21c.78.045 1.184.438 1.347 1.012.193.678.13 1.238-.478 1.623l.027.178c.72.223 1.116.876 1.138 1.528.024.68-.524 1.374-1.347 1.667-.271.097-1.082.25-1.082.25l.241.683Zm-.909-10.386c-1.08.137-1.799-.438-1.927-1.28-.14-.93.386-1.656 1.466-1.791 1.037-.132 1.8.437 1.94 1.362.134.848-.434 1.579-1.479 1.709Z"/><defs><clipPath id="a"><circle fill="#fff" r="19" cx="19" cy="19"/></clipPath></defs></svg>